<?xml version="1.0" standalone="no"?>
<!DOCTYPE svg PUBLIC "-//W3C//DTD SVG 20010904//EN"
 "http://www.w3.org/TR/2001/REC-SVG-20010904/DTD/svg10.dtd">
<svg version="1.0" xmlns="http://www.w3.org/2000/svg"
 width="509.000000pt" height="75.000000pt" viewBox="0 0 509.000000 75.000000"
 preserveAspectRatio="xMidYMid meet">

<g transform="translate(0.000000,75.000000) scale(0.100000,-0.100000)"
fill="#000000" stroke="none">
<path d="M1133 713 l27 -4 -2 -337 -3 -336 -25 -7 c-14 -4 23 -7 83 -8 101 -1
107 0 107 19 0 23 15 27 23 6 9 -23 79 -39 130 -32 59 9 105 41 131 91 30 57
30 221 1 280 -30 59 -75 85 -147 85 -53 0 -63 -3 -90 -30 -16 -16 -31 -30 -34
-30 -2 0 -4 70 -4 155 l0 155 -112 -1 c-62 -1 -101 -4 -85 -6z m303 -298 c13
-20 15 -50 12 -183 -3 -169 -9 -192 -53 -192 -12 0 -30 9 -41 21 -28 31 -34
250 -9 315 25 66 63 82 91 39z"/>
<path d="M30 670 c0 -5 11 -10 25 -10 l25 0 0 -220 c0 -261 8 -308 59 -359 48
-48 111 -66 222 -65 105 1 160 26 193 89 19 37 21 59 24 298 l3 257 24 0 c14
0 25 5 25 10 0 6 -28 10 -65 10 -37 0 -65 -4 -65 -10 0 -5 14 -10 31 -10 l30
0 -3 -257 c-3 -248 -4 -259 -26 -294 -53 -87 -203 -91 -249 -7 -16 29 -18 64
-21 296 l-3 262 30 0 c17 0 31 5 31 10 0 6 -55 10 -145 10 -90 0 -145 -4 -145
-10z"/>
<path d="M3203 663 c-4 -10 -57 -153 -119 -318 -95 -255 -115 -300 -133 -303
-11 -2 -21 -8 -21 -13 0 -5 32 -9 70 -9 40 0 70 4 70 10 0 6 -16 10 -35 10
-19 0 -35 3 -34 8 0 4 15 47 33 97 l32 90 96 3 96 3 31 -93 c17 -51 31 -96 31
-101 0 -4 -13 -7 -30 -7 -16 0 -30 -4 -30 -10 0 -6 57 -10 150 -10 86 0 150 4
150 9 0 5 -10 11 -21 13 -18 3 -38 49 -138 320 l-116 318 -38 0 c-27 0 -40 -5
-44 -17z m7 -278 c18 -55 35 -106 38 -112 3 -10 -17 -13 -82 -13 -47 0 -86 3
-86 8 0 4 18 56 40 116 22 61 40 112 40 115 0 21 23 -31 50 -114z"/>
<path d="M660 460 c0 -5 11 -10 25 -10 l25 0 -2 -207 -3 -207 -25 -7 c-14 -4
40 -7 120 -7 80 0 132 3 115 7 l-30 6 -3 140 c-3 166 1 195 34 235 36 43 95
40 78 -4 -3 -9 -15 -16 -25 -16 -29 0 -26 -64 3 -84 33 -23 83 -20 108 6 27
30 27 96 -1 132 -17 22 -28 26 -70 26 -61 0 -84 -11 -109 -53 l-20 -32 0 43 0
42 -110 0 c-67 0 -110 -4 -110 -10z"/>
<path d="M1764 456 c-42 -18 -64 -52 -64 -97 0 -47 25 -69 78 -69 72 0 108 65
61 109 -24 22 -19 57 9 64 9 3 1 5 -18 5 -19 1 -49 -5 -66 -12z"/>
<path d="M1890 452 c20 -16 23 -30 28 -114 l5 -95 -82 -6 c-81 -6 -126 -22
-151 -52 -19 -22 -17 -98 3 -129 35 -53 162 -60 204 -12 l22 26 24 -24 c51
-51 177 -41 203 14 17 36 28 100 15 80 -6 -8 -11 -25 -11 -36 0 -26 -24 -48
-44 -41 -11 5 -15 38 -18 159 -3 124 -7 159 -21 186 -23 42 -69 62 -143 62
-56 0 -56 0 -34 -18z m24 -301 c0 -76 -17 -110 -48 -98 -26 10 -22 131 5 158
34 34 44 19 43 -60z"/>
<path d="M2180 460 c0 -5 11 -10 25 -10 l25 0 0 -209 0 -210 -27 -4 c-16 -2
33 -4 107 -5 94 0 128 2 111 9 l-23 9 4 158 c3 134 6 162 23 190 24 40 62 53
82 27 10 -14 13 -64 13 -197 0 -176 0 -179 -22 -188 -16 -6 22 -9 112 -8 74 0
124 3 110 7 l-25 7 -5 174 c-6 190 -14 221 -61 246 -16 8 -56 14 -90 14 -56 0
-64 -3 -96 -35 -19 -19 -37 -35 -39 -35 -2 0 -4 16 -4 35 l0 35 -110 0 c-67 0
-110 -4 -110 -10z"/>
<path d="M3540 460 c0 -5 11 -10 25 -10 l25 0 0 -160 c0 -215 17 -257 114
-275 55 -11 106 3 137 36 l27 29 7 -30 7 -30 106 1 c59 1 96 4 82 8 l-25 7 -3
217 -2 217 -105 0 c-63 0 -105 -4 -105 -10 0 -5 9 -10 21 -10 20 0 21 -3 17
-172 -2 -133 -7 -178 -18 -196 -29 -44 -74 -39 -84 10 -3 17 -6 109 -6 204 l0
174 -110 0 c-67 0 -110 -4 -110 -10z"/>
<path d="M4120 460 c0 -5 11 -10 25 -10 l25 0 -2 -207 -3 -207 -25 -7 c-14 -4
40 -7 120 -7 80 0 132 3 115 7 l-30 6 -3 140 c-3 166 1 195 34 235 36 43 95
40 78 -4 -3 -9 -15 -16 -25 -16 -29 0 -26 -64 3 -84 33 -23 83 -20 108 6 27
30 27 96 -1 132 -17 22 -28 26 -70 26 -61 0 -84 -11 -109 -53 l-20 -32 0 43 0
42 -110 0 c-67 0 -110 -4 -110 -10z"/>
<path d="M4665 456 c-40 -17 -55 -37 -62 -80 -9 -56 16 -86 72 -86 54 0 85 26
85 70 0 19 -7 33 -20 40 -26 14 -25 35 2 54 22 16 22 16 -12 16 -19 -1 -49 -7
-65 -14z"/>
<path d="M4782 464 c23 -7 38 -64 38 -150 l0 -71 -80 -6 c-84 -7 -133 -25
-150 -56 -17 -33 -12 -105 10 -128 47 -51 157 -55 197 -9 l22 26 24 -24 c15
-15 42 -27 71 -31 90 -14 140 20 150 100 l5 40 -12 -39 c-16 -47 -43 -69 -57
-46 -5 8 -10 76 -10 150 -2 208 -23 243 -153 247 -40 1 -64 0 -55 -3z m36
-309 c-4 -79 -21 -113 -52 -102 -32 12 -17 146 18 169 32 21 38 9 34 -67z"/>
</g>
</svg>
